<svg id="canvas" height="auto" xmlns="http://www.w3.org/2000/svg" version="1.1" xmlns:xlink="http://www.w3.org/1999/xlink" viewBox="0 0 900 512" width="auto" style="width: auto; height: auto;"><rect width="900" height="512" fill="#141415ff"/><path d="M155.47200128298311 357.6370007216824C112.4631091966765 374.3060082209612 59.27717078852186 369.02933972151834 11.405402024433783 368.82002854185157C-36.46636673965429 368.6107173621848 -89.78603069446933 382.9719480765999 -131.7586113015455 356.3811336436818C-173.7311919086217 329.79031921076364 -206.3478160358671 249.16213716915343 -240.4300816180234 209.27514194434298C-274.51234720017965 169.38814671953253 -318.1269435743209 157.17730660393624 -336.25220479448325 117.0591622948192C-354.3774660146456 76.94101798570216 -348.9846254629972 14.485089493681471 -349.18164893899774 -31.43372391035922C-349.3786724149983 -77.35253731439991 -354.30630070015553 -122.25889050830523 -337.4343456504866 -158.45371812942497C-320.5623906008176 -194.6485457505447 -278.62310980301186 -218.7543343605363 -247.94991864098395 -248.60268963707762C-217.27672747895605 -278.45104491361894 -188.91132251846412 -320.97455870965166 -153.3951986783191 -337.54384978867284C-117.87907483817409 -354.113140867694 -75.52044979052982 -347.8762283857928 -34.85317560011384 -348.01843611120484C5.814098590302137 -348.1606438366169 44.49445862782193 -356.33791469230124 90.60844646417678 -338.39709614114514C136.72243430053163 -320.45627758998904 200.74532987329212 -273.63956454666805 241.8307514180151 -240.3735248042683C282.9161729627381 -207.10748506186854 322.5997377369001 -178.12696491843874 337.1209757325146 -138.80085768674655C351.64221372812904 -99.47475045505439 330.5034103248605 -49.70735949908635 328.9581793917015 -4.41688141411521C327.4129484585425 40.87359667085593 337.7661609417987 87.40486666303116 327.8495901335607 132.94201082308018C317.9330193253227 178.4791549831292 298.18835268403643 231.35681856307872 269.4587545422735 268.80598354617905C240.72915640051053 306.2551485292794 198.4808933692898 340.9679932224036 155.47200128298311 357.6370007216824C112.4631091966765 374.3060082209612 59.27717078852186 369.02933972151834 11.405402024433783 368.82002854185157 " fill="url(#SvgjsLinearGradient1006)"/><defs><linearGradient gradientTransform="matrix(1,0,0,1,0,0)" id="SvgjsLinearGradient1006"><stop stop-color="#7db4cdff" offset="0"/><stop stop-color="#967dcdff" offset="1"/></linearGradient><linearGradient gradientTransform="matrix(1,0,0,1,0,0)" id="SvgjsLinearGradient1007"><stop stop-color="#7db4cdff" offset="0"/><stop stop-color="#967dcdff" offset="1"/></linearGradient></defs><path d="M1053.9808178463222 976.5518461259575C1011.1627354969439 993.4241857032572 957.8867354609783 987.2972811760172 909.919117944492 987.2236072453431C861.9515004280058 987.149933314669 811.6346205320172 1007.8199441950131 766.1751127474046 976.1098025419129C720.715604962792 944.3996608888127 671.7081216648155 842.9276634150244 637.1620712368165 796.9627573267421C602.6160208088174 750.9978512384598 573.0610309145995 728.8829406764369 558.8988101794101 700.3203660122192C544.7365894442207 671.7577913480017 551.5678078621706 661.7773185700245 552.1887468256798 625.5873093414365C552.809685789189 589.3973001128485 548.5301414131008 528.1254422224888 562.6244439604653 483.18031064069123C576.7187465078299 438.2351790588936 608.2694563508263 390.1086465340117 636.7545621098672 355.9165198506509C665.239667868908 321.7243931672901 688.9440721458294 292.6907537636897 733.5350785147103 278.02755054052625C778.1260848835913 263.3643473173628 852.2406980902539 267.33778149497294 904.3006003231526 267.93730051167C956.3605025560512 268.53681952836706 1005.135512590772 264.89166865521184 1045.8944919121022 281.6246646407086C1086.6534712334324 298.35766062620536 1117.1756391818305 335.50520432909696 1148.8544762511337 368.3352764246505C1180.5333133204372 401.1653485202041 1229.6531295364316 441.3094385779685 1235.9675143279221 478.6050972140299C1242.2818991194126 515.9007558500914 1195.098960017398 551.5926244504808 1186.7407850000766 592.1092282410191C1178.3826099827552 632.6258320315575 1189.1373263838805 672.724663033839 1185.8184642239944 721.7047199572598C1182.4996020641088 770.6847768806808 1188.800553103707 843.5150487534283 1166.8276120407616 885.9895697815446C1144.854670977816 928.4640908096608 1096.7989001957003 959.6795065486577 1053.9808178463222 976.5518461259575C1011.1627354969439 993.4241857032572 957.8867354609783 987.2972811760172 909.919117944492 987.2236072453431 " fill="url(#SvgjsLinearGradient1007)" transform="matrix(-1,1.2246467991473532e-16,-1.2246467991473532e-16,-1,1786.547119140625,1260.7756958007812)"/></svg>