<svg id="canvas" height="auto" xmlns="http://www.w3.org/2000/svg" version="1.1" xmlns:xlink="http://www.w3.org/1999/xlink" viewBox="0 0 900 512" width="auto" style="width: auto; height: auto;"><rect width="900" height="512" fill="#141415ff"/><path d="M131.9254157634191 331.8130306072102C89.05291200000687 343.66358780844973 28.375405240299074 317.24883438022437 -19.08303220083468 313.24475733890677C-66.54146964196843 309.24068029758917 -115.03448964595324 316.56842885713627 -152.82520888338354 307.78856835930446C-190.61592812081383 299.00870786147266 -214.61429961231028 286.45277734193667 -245.82734762541645 260.5655943519156C-277.0403956385226 234.67841136189452 -323.50995668928664 195.8377403396421 -340.1034969620206 152.46547041917825C-356.69703723475453 109.09320049871445 -345.2740043557027 48.961772733750195 -345.38858926182013 0.3319748291327187C-345.5031741679376 -48.29782307548476 -358.2827718333977 -99.84989238667902 -340.79100639872513 -139.31331700852672C-323.29924096405256 -178.77674163037443 -273.5681421989006 -203.56042691080327 -240.43799665378458 -236.44857290195344C-207.30785110866856 -269.3367188931036 -182.2723091505857 -317.90007736536035 -142.0101331280289 -336.64219295542773C-101.7479571054721 -355.3843085454951 -46.30235685394774 -348.9355028238094 1.1350594815561976 -348.90126644235784C48.57247581706014 -348.8670300609063 104.2878292615651 -353.2754659585395 142.61436488499464 -336.4367746667185C180.9409005084242 -319.59808337489756 201.44023013698768 -280.0311516532544 231.09427322213367 -247.86911869143202C260.74831630727965 -215.70708572960962 308.3561896354139 -182.34303317137037 320.5386233958708 -143.46457689578406C332.7210571563277 -104.58612062019779 306.8199959362521 -58.39802901556351 304.18887578487477 -14.598381037914237C301.55775563349744 29.201266939735035 315.75805005514644 76.5433451085475 304.75190248760714 119.33331097011143C293.74575492006784 162.1232768316753 266.95640483367004 206.72812752528614 238.15199037963873 242.14141413146922C209.34757592560743 277.5547007376523 174.79791952683138 319.9624734059706 131.9254157634191 331.8130306072102C89.05291200000687 343.66358780844973 28.375405240299074 317.24883438022437 -19.08303220083468 313.24475733890677 " fill="url(#SvgjsLinearGradient1008)"/><defs><linearGradient gradientTransform="matrix(1,0,0,1,0,0)" id="SvgjsLinearGradient1008"><stop stop-color="#304d5dff" offset="0"/><stop stop-color="#40305dff" offset="1"/></linearGradient><linearGradient gradientTransform="matrix(1,0,0,1,0,0)" id="SvgjsLinearGradient1009"><stop stop-color="#304d5dff" offset="0"/><stop stop-color="#40305dff" offset="1"/></linearGradient></defs><path d="M1027.3106153548838 934.1002532843872C984.958837552043 945.0020544500726 922.543352367536 913.6221312884384 875.4598745081873 908.7056734993976C828.3763966488386 903.7892157103568 783.5800884576767 925.1477327327871 744.8097481987916 904.6015065501424C706.0394079399066 884.0552803674977 673.863121767373 820.4144426603938 642.8378329548771 785.42831640353C611.8125441423812 750.4421901466661 573.4207292571314 730.8872393942265 558.6580153238164 694.6847490089596C543.8953013905013 658.4822586236926 554.2968421425783 609.7294263765449 554.2615493549872 568.2133740919282C554.2262565673963 526.6973218073115 542.3290902586984 479.50918355450176 558.4462585982703 445.5884353012592C574.5634269378423 411.66768704801666 618.2331488755761 393.1197806739603 650.9645593924189 364.6888845724727C683.6959699092616 336.2579884709851 718.9959472174755 289.83305992124 754.8347216993268 275.0030586923335C790.6734961811782 260.173057463427 826.2986388605185 276.0349552981912 865.997206283527 275.7088771990336C905.6957737065355 275.382799099876 949.5736024630344 258.17136139487246 993.0261262373779 273.0465900973881C1036.4786500117214 287.92181879990375 1089.4038710407237 332.65523922098134 1126.7123489295884 364.9602494141276C1164.020826818453 397.2652596072739 1195.1348422759393 423.7305485104514 1216.8769935705657 466.8766512562658C1238.619144865192 510.0227540020802 1250.387299522325 573.6916421916045 1257.1652566973478 623.836865889014C1263.9432138723705 673.9820895864236 1278.8105225160543 731.171660004678 1257.5447366207018 767.7479934407232C1236.2789507253492 804.3243268767685 1167.9428948695354 815.5694898646748 1129.5705413252322 843.2948665052854C1091.1981877809294 871.0202431458961 1069.6623931577246 923.1984521187019 1027.3106153548838 934.1002532843872C984.958837552043 945.0020544500726 922.543352367536 913.6221312884384 875.4598745081873 908.7056734993976 " fill="url(#SvgjsLinearGradient1009)" transform="matrix(-1,1.2246467991473532e-16,-1.2246467991473532e-16,-1,1818.5628662109375,1203.3853759765625)"/></svg>
